<mxfile host="Electron" modified="2024-07-17T01:01:58.876Z" agent="Mozilla/5.0 (Windows NT 10.0; Win64; x64) AppleWebKit/537.36 (KHTML, like Gecko) draw.io/24.6.4 Chrome/124.0.6367.207 Electron/30.0.6 Safari/537.36" etag="O7Ps5LGyUfa4w25EODpe" version="24.6.4" type="device">
  <diagram name="Página-1" id="9QztTVKJqdP5o5zD_Zlj">
    <mxGraphModel dx="1373" dy="800" grid="1" gridSize="10" guides="1" tooltips="1" connect="1" arrows="1" fold="1" page="1" pageScale="1" pageWidth="1169" pageHeight="827" math="0" shadow="0">
      <root>
        <mxCell id="0" />
        <mxCell id="1" parent="0" />
        <mxCell id="KTFgOh8g7GbZ9kKHf237-9" style="edgeStyle=orthogonalEdgeStyle;rounded=0;orthogonalLoop=1;jettySize=auto;html=1;entryX=1;entryY=0.5;entryDx=0;entryDy=0;" edge="1" parent="1" source="KTFgOh8g7GbZ9kKHf237-1" target="KTFgOh8g7GbZ9kKHf237-3">
          <mxGeometry relative="1" as="geometry" />
        </mxCell>
        <mxCell id="KTFgOh8g7GbZ9kKHf237-10" style="edgeStyle=orthogonalEdgeStyle;rounded=0;orthogonalLoop=1;jettySize=auto;html=1;entryX=0;entryY=0.5;entryDx=0;entryDy=0;" edge="1" parent="1" source="KTFgOh8g7GbZ9kKHf237-1" target="KTFgOh8g7GbZ9kKHf237-4">
          <mxGeometry relative="1" as="geometry" />
        </mxCell>
        <mxCell id="KTFgOh8g7GbZ9kKHf237-54" style="edgeStyle=orthogonalEdgeStyle;rounded=0;orthogonalLoop=1;jettySize=auto;html=1;entryX=1;entryY=0.5;entryDx=0;entryDy=0;" edge="1" parent="1" source="KTFgOh8g7GbZ9kKHf237-1" target="KTFgOh8g7GbZ9kKHf237-5">
          <mxGeometry relative="1" as="geometry" />
        </mxCell>
        <mxCell id="KTFgOh8g7GbZ9kKHf237-55" style="edgeStyle=orthogonalEdgeStyle;rounded=0;orthogonalLoop=1;jettySize=auto;html=1;entryX=0;entryY=0.5;entryDx=0;entryDy=0;" edge="1" parent="1" source="KTFgOh8g7GbZ9kKHf237-1" target="KTFgOh8g7GbZ9kKHf237-6">
          <mxGeometry relative="1" as="geometry" />
        </mxCell>
        <mxCell id="KTFgOh8g7GbZ9kKHf237-56" style="edgeStyle=orthogonalEdgeStyle;rounded=0;orthogonalLoop=1;jettySize=auto;html=1;entryX=0.5;entryY=0;entryDx=0;entryDy=0;" edge="1" parent="1" source="KTFgOh8g7GbZ9kKHf237-1" target="KTFgOh8g7GbZ9kKHf237-7">
          <mxGeometry relative="1" as="geometry" />
        </mxCell>
        <mxCell id="KTFgOh8g7GbZ9kKHf237-73" style="edgeStyle=orthogonalEdgeStyle;rounded=0;orthogonalLoop=1;jettySize=auto;html=1;entryX=0;entryY=0.5;entryDx=0;entryDy=0;" edge="1" parent="1" source="KTFgOh8g7GbZ9kKHf237-1" target="KTFgOh8g7GbZ9kKHf237-72">
          <mxGeometry relative="1" as="geometry" />
        </mxCell>
        <mxCell id="KTFgOh8g7GbZ9kKHf237-1" value="cliente" style="rounded=0;whiteSpace=wrap;html=1;" vertex="1" parent="1">
          <mxGeometry x="120" y="120" width="90" height="40" as="geometry" />
        </mxCell>
        <mxCell id="KTFgOh8g7GbZ9kKHf237-3" value="Número de cliente" style="ellipse;whiteSpace=wrap;html=1;" vertex="1" parent="1">
          <mxGeometry x="40" y="210" width="100" height="60" as="geometry" />
        </mxCell>
        <mxCell id="KTFgOh8g7GbZ9kKHf237-4" value="Dirección de envío" style="ellipse;whiteSpace=wrap;html=1;" vertex="1" parent="1">
          <mxGeometry x="190" y="210" width="100" height="60" as="geometry" />
        </mxCell>
        <mxCell id="KTFgOh8g7GbZ9kKHf237-5" value="Saldo" style="ellipse;whiteSpace=wrap;html=1;" vertex="1" parent="1">
          <mxGeometry x="40" y="290" width="100" height="60" as="geometry" />
        </mxCell>
        <mxCell id="KTFgOh8g7GbZ9kKHf237-6" value="Límite de crédito" style="ellipse;whiteSpace=wrap;html=1;" vertex="1" parent="1">
          <mxGeometry x="190" y="290" width="100" height="60" as="geometry" />
        </mxCell>
        <mxCell id="KTFgOh8g7GbZ9kKHf237-7" value="Descuento" style="ellipse;whiteSpace=wrap;html=1;" vertex="1" parent="1">
          <mxGeometry x="115" y="363" width="100" height="60" as="geometry" />
        </mxCell>
        <mxCell id="KTFgOh8g7GbZ9kKHf237-24" style="edgeStyle=orthogonalEdgeStyle;rounded=0;orthogonalLoop=1;jettySize=auto;html=1;entryX=1;entryY=0.5;entryDx=0;entryDy=0;" edge="1" parent="1" source="KTFgOh8g7GbZ9kKHf237-17" target="KTFgOh8g7GbZ9kKHf237-20">
          <mxGeometry relative="1" as="geometry" />
        </mxCell>
        <mxCell id="KTFgOh8g7GbZ9kKHf237-25" style="edgeStyle=orthogonalEdgeStyle;rounded=0;orthogonalLoop=1;jettySize=auto;html=1;entryX=0;entryY=0.5;entryDx=0;entryDy=0;" edge="1" parent="1" source="KTFgOh8g7GbZ9kKHf237-17" target="KTFgOh8g7GbZ9kKHf237-21">
          <mxGeometry relative="1" as="geometry" />
        </mxCell>
        <mxCell id="KTFgOh8g7GbZ9kKHf237-63" style="edgeStyle=orthogonalEdgeStyle;rounded=0;orthogonalLoop=1;jettySize=auto;html=1;" edge="1" parent="1" source="KTFgOh8g7GbZ9kKHf237-17" target="KTFgOh8g7GbZ9kKHf237-18">
          <mxGeometry relative="1" as="geometry" />
        </mxCell>
        <mxCell id="KTFgOh8g7GbZ9kKHf237-17" value="artículo" style="rounded=0;whiteSpace=wrap;html=1;" vertex="1" parent="1">
          <mxGeometry x="710" y="387.5" width="90" height="40" as="geometry" />
        </mxCell>
        <mxCell id="KTFgOh8g7GbZ9kKHf237-18" value="Número de artículo" style="ellipse;whiteSpace=wrap;html=1;" vertex="1" parent="1">
          <mxGeometry x="705" y="552.5" width="100" height="60" as="geometry" />
        </mxCell>
        <mxCell id="KTFgOh8g7GbZ9kKHf237-20" value="Existencias" style="ellipse;whiteSpace=wrap;html=1;" vertex="1" parent="1">
          <mxGeometry x="620" y="477.5" width="100" height="60" as="geometry" />
        </mxCell>
        <mxCell id="KTFgOh8g7GbZ9kKHf237-21" value="Descripción" style="ellipse;whiteSpace=wrap;html=1;" vertex="1" parent="1">
          <mxGeometry x="790" y="477.5" width="100" height="60" as="geometry" />
        </mxCell>
        <mxCell id="KTFgOh8g7GbZ9kKHf237-60" style="edgeStyle=orthogonalEdgeStyle;rounded=0;orthogonalLoop=1;jettySize=auto;html=1;entryX=1;entryY=0.5;entryDx=0;entryDy=0;" edge="1" parent="1" source="KTFgOh8g7GbZ9kKHf237-27" target="KTFgOh8g7GbZ9kKHf237-35">
          <mxGeometry relative="1" as="geometry" />
        </mxCell>
        <mxCell id="KTFgOh8g7GbZ9kKHf237-77" style="edgeStyle=orthogonalEdgeStyle;rounded=0;orthogonalLoop=1;jettySize=auto;html=1;entryX=0;entryY=0.5;entryDx=0;entryDy=0;" edge="1" parent="1" source="KTFgOh8g7GbZ9kKHf237-27" target="KTFgOh8g7GbZ9kKHf237-76">
          <mxGeometry relative="1" as="geometry" />
        </mxCell>
        <mxCell id="KTFgOh8g7GbZ9kKHf237-92" style="edgeStyle=orthogonalEdgeStyle;rounded=0;orthogonalLoop=1;jettySize=auto;html=1;entryX=0.5;entryY=0;entryDx=0;entryDy=0;" edge="1" parent="1" source="KTFgOh8g7GbZ9kKHf237-27" target="KTFgOh8g7GbZ9kKHf237-91">
          <mxGeometry relative="1" as="geometry" />
        </mxCell>
        <mxCell id="KTFgOh8g7GbZ9kKHf237-27" value="pedido" style="rounded=0;whiteSpace=wrap;html=1;" vertex="1" parent="1">
          <mxGeometry x="360" y="460" width="90" height="40" as="geometry" />
        </mxCell>
        <mxCell id="KTFgOh8g7GbZ9kKHf237-35" value="dirección de envío" style="ellipse;whiteSpace=wrap;html=1;" vertex="1" parent="1">
          <mxGeometry x="260" y="547.5" width="108.33" height="65" as="geometry" />
        </mxCell>
        <mxCell id="KTFgOh8g7GbZ9kKHf237-51" value="Cantidad de artículo" style="ellipse;whiteSpace=wrap;html=1;" vertex="1" parent="1">
          <mxGeometry x="495.83" y="510" width="108.33" height="65" as="geometry" />
        </mxCell>
        <mxCell id="KTFgOh8g7GbZ9kKHf237-68" style="edgeStyle=orthogonalEdgeStyle;rounded=0;orthogonalLoop=1;jettySize=auto;html=1;entryX=1;entryY=0.5;entryDx=0;entryDy=0;" edge="1" parent="1" source="KTFgOh8g7GbZ9kKHf237-64" target="KTFgOh8g7GbZ9kKHf237-65">
          <mxGeometry relative="1" as="geometry" />
        </mxCell>
        <mxCell id="KTFgOh8g7GbZ9kKHf237-69" style="edgeStyle=orthogonalEdgeStyle;rounded=0;orthogonalLoop=1;jettySize=auto;html=1;entryX=0;entryY=0.5;entryDx=0;entryDy=0;" edge="1" parent="1" source="KTFgOh8g7GbZ9kKHf237-64" target="KTFgOh8g7GbZ9kKHf237-66">
          <mxGeometry relative="1" as="geometry" />
        </mxCell>
        <mxCell id="KTFgOh8g7GbZ9kKHf237-70" style="edgeStyle=orthogonalEdgeStyle;rounded=0;orthogonalLoop=1;jettySize=auto;html=1;entryX=0.5;entryY=0;entryDx=0;entryDy=0;" edge="1" parent="1" source="KTFgOh8g7GbZ9kKHf237-64" target="KTFgOh8g7GbZ9kKHf237-67">
          <mxGeometry relative="1" as="geometry" />
        </mxCell>
        <mxCell id="KTFgOh8g7GbZ9kKHf237-83" style="edgeStyle=orthogonalEdgeStyle;rounded=0;orthogonalLoop=1;jettySize=auto;html=1;entryX=0.5;entryY=0;entryDx=0;entryDy=0;" edge="1" parent="1" source="KTFgOh8g7GbZ9kKHf237-64" target="KTFgOh8g7GbZ9kKHf237-82">
          <mxGeometry relative="1" as="geometry" />
        </mxCell>
        <mxCell id="KTFgOh8g7GbZ9kKHf237-64" value="fábrica" style="rounded=0;whiteSpace=wrap;html=1;" vertex="1" parent="1">
          <mxGeometry x="930" y="90" width="90" height="40" as="geometry" />
        </mxCell>
        <mxCell id="KTFgOh8g7GbZ9kKHf237-65" value="Número (id)" style="ellipse;whiteSpace=wrap;html=1;" vertex="1" parent="1">
          <mxGeometry x="830" y="160" width="100" height="60" as="geometry" />
        </mxCell>
        <mxCell id="KTFgOh8g7GbZ9kKHf237-66" value="Teléfono de contacto" style="ellipse;whiteSpace=wrap;html=1;" vertex="1" parent="1">
          <mxGeometry x="1020" y="160" width="100" height="60" as="geometry" />
        </mxCell>
        <mxCell id="KTFgOh8g7GbZ9kKHf237-67" value="Alternativas" style="ellipse;whiteSpace=wrap;html=1;" vertex="1" parent="1">
          <mxGeometry x="925" y="230" width="100" height="60" as="geometry" />
        </mxCell>
        <mxCell id="KTFgOh8g7GbZ9kKHf237-75" style="edgeStyle=orthogonalEdgeStyle;rounded=0;orthogonalLoop=1;jettySize=auto;html=1;entryX=0.5;entryY=0;entryDx=0;entryDy=0;" edge="1" parent="1" source="KTFgOh8g7GbZ9kKHf237-72" target="KTFgOh8g7GbZ9kKHf237-27">
          <mxGeometry relative="1" as="geometry" />
        </mxCell>
        <mxCell id="KTFgOh8g7GbZ9kKHf237-72" value="hace" style="rhombus;whiteSpace=wrap;html=1;" vertex="1" parent="1">
          <mxGeometry x="330" y="105" width="70" height="70" as="geometry" />
        </mxCell>
        <mxCell id="KTFgOh8g7GbZ9kKHf237-79" style="edgeStyle=orthogonalEdgeStyle;rounded=0;orthogonalLoop=1;jettySize=auto;html=1;exitX=1;exitY=0.5;exitDx=0;exitDy=0;entryX=0;entryY=0.5;entryDx=0;entryDy=0;" edge="1" parent="1" source="KTFgOh8g7GbZ9kKHf237-76" target="KTFgOh8g7GbZ9kKHf237-17">
          <mxGeometry relative="1" as="geometry" />
        </mxCell>
        <mxCell id="KTFgOh8g7GbZ9kKHf237-93" style="edgeStyle=orthogonalEdgeStyle;rounded=0;orthogonalLoop=1;jettySize=auto;html=1;entryX=0.5;entryY=0;entryDx=0;entryDy=0;" edge="1" parent="1" source="KTFgOh8g7GbZ9kKHf237-76" target="KTFgOh8g7GbZ9kKHf237-51">
          <mxGeometry relative="1" as="geometry" />
        </mxCell>
        <mxCell id="KTFgOh8g7GbZ9kKHf237-76" value="incluye" style="rhombus;whiteSpace=wrap;html=1;" vertex="1" parent="1">
          <mxGeometry x="515" y="395" width="70" height="70" as="geometry" />
        </mxCell>
        <mxCell id="KTFgOh8g7GbZ9kKHf237-84" style="edgeStyle=orthogonalEdgeStyle;rounded=0;orthogonalLoop=1;jettySize=auto;html=1;" edge="1" parent="1" source="KTFgOh8g7GbZ9kKHf237-82" target="KTFgOh8g7GbZ9kKHf237-17">
          <mxGeometry relative="1" as="geometry" />
        </mxCell>
        <mxCell id="KTFgOh8g7GbZ9kKHf237-82" value="distribuye" style="rhombus;whiteSpace=wrap;html=1;" vertex="1" parent="1">
          <mxGeometry x="720" y="190" width="70" height="70" as="geometry" />
        </mxCell>
        <mxCell id="KTFgOh8g7GbZ9kKHf237-86" value="1:N" style="text;html=1;align=center;verticalAlign=middle;whiteSpace=wrap;rounded=0;fontSize=24;" vertex="1" parent="1">
          <mxGeometry x="220.83" y="85" width="100" height="50" as="geometry" />
        </mxCell>
        <mxCell id="KTFgOh8g7GbZ9kKHf237-87" value="1:N" style="text;html=1;align=center;verticalAlign=middle;whiteSpace=wrap;rounded=0;fontSize=24;" vertex="1" parent="1">
          <mxGeometry x="500" y="340" width="100" height="50" as="geometry" />
        </mxCell>
        <mxCell id="KTFgOh8g7GbZ9kKHf237-90" value="1&lt;span style=&quot;background-color: initial;&quot;&gt;:N&lt;/span&gt;" style="text;html=1;align=center;verticalAlign=middle;whiteSpace=wrap;rounded=0;fontSize=24;rotation=-90;" vertex="1" parent="1">
          <mxGeometry x="640" y="190" width="100" height="50" as="geometry" />
        </mxCell>
        <mxCell id="KTFgOh8g7GbZ9kKHf237-91" value="fecha del pedido" style="ellipse;whiteSpace=wrap;html=1;" vertex="1" parent="1">
          <mxGeometry x="350.83" y="620" width="108.33" height="65" as="geometry" />
        </mxCell>
      </root>
    </mxGraphModel>
  </diagram>
</mxfile>
